#!OML:ASF X:\für Bonn\!DataBase\2005_08_12_Daniel\c3d\Daniel.ASF
:FULLY-SPECIFIED
:DEGREES
421
root 19.3521 1.27187 0.60801 -1699.51 258.145 144.403
lowerback 26.4898 -2.79243 1.32167
upperback 6.7985 -4.17297 -4.23679
thorax -7.5068 -2.29971 -4.06813
lowerneck -9.8037 0.894436 -5.09106
upperneck -0.270627 1.64004 1.68656
head 1.53774 0.820156 1.48228
rclavicle 2.17669e-014 -4.02725e-014
rhumerus -411.535 -25.9841 303.329
rradius 11.4774
rwrist 79.7138
rhand -13.2761 738.656
rfingers 7.12502
rthumb 12.8271 709.07
lclavicle 2.17669e-014 -4.02725e-014
lhumerus -586.356 161.162 -481.165
lradius 18.0311
lwrist -53.192
lhand -1.78223 -725.652
lfingers 7.12502
lthumb 23.8822 22.8826
rfemur -518.353 -198.809 565.976
rtibia 26.4015
rfoot -20.7196 -24.8649
rtoes 30.8375
lfemur 0.285262 727.703 -24.1702
ltibia 63.0843
lfoot 163.82 557.806
ltoes 21.2965
422
root 19.3672 1.27717 0.611076 -1699.09 258.205 143.977
lowerback 26.4503 -2.83453 1.40404
upperback 6.82307 -4.20241 -4.19615
thorax -7.46425 -2.31476 -4.0622
lowerneck -9.84634 0.896115 -5.09709
upperneck -0.243436 1.64586 1.65601
head 1.55401 0.821884 1.47464
rclavicle -3.73715e-014 2.34193e-014
rhumerus -410.971 -24.9812 302.307
rradius 11.6481
rwrist 78.1081
rhand -12.8876 738.898
rfingers 7.12502
rthumb 13.2016 709.336
lclavicle -3.73715e-014 2.34193e-014
lhumerus -586.297 161.145 -481.256
lradius 18.1186
lwrist -52.5214
lhand -2.02939 -725.369
lfingers 7.12502
lthumb 23.6452 23.1969
rfemur -517.972 -198.885 566.158
rtibia 25.7864
rfoot -20.8131 -25.043
rtoes 30.7294
lfemur 0.929817 726.965 -24.2402
ltibia 61.6542
lfoot 164.407 557.698
ltoes 21.2245
423
root 19.3851 1.28264 0.613741 -1698.69 258.265 143.581
lowerback 26.4055 -2.88145 1.47328
upperback 6.82343 -4.24076 -4.15032
thorax -7.44566 -2.3336 -4.03976
lowerneck -9.84115 0.904069 -5.11266
upperneck -0.23045 1.65893 1.61111
head 1.55686 0.826908 1.46344
rclavicle 7.7526e-015 -5.60945e-014
rhumerus -410.471 -23.8643 301.281
rradius 11.8315
rwrist 76.3086
rhand -12.4093 739.134
rfingers 7.12502
rthumb 13.6626 709.603
lclavicle 7.7526e-015 -5.60945e-014
lhumerus -586.29 161.176 -481.336
lradius 18.2146
lwrist -51.9173
lhand -2.17919 -725.04
lfingers 7.12502
lthumb 23.5015 23.5446
rfemur -517.588 -198.926 566.304
rtibia 25.1017
rfoot -20.8074 -25.3004
rtoes 30.6427
lfemur 1.56985 726.19 -24.3355
ltibia 60.1898
lfoot 164.919 557.669
ltoes 21.0148
424
root 19.4023 1.28773 0.616756 -1698.25 258.337 143.133
lowerback 26.3869 -2.9275 1.56244
upperback 6.83397 -4.27299 -4.10011
thorax -7.42915 -2.35 -4.02536
lowerneck -9.88514 0.900102 -5.1137
upperneck -0.196436 1.65746 1.56283
head 1.57594 0.824486 1.44898
rclavicle -1.92821e-014 9.47333e-016
rhumerus -410.098 -23.0485 300.593
rradius 11.9408
rwrist 74.8379
rhand -11.9394 739.259
rfingers 7.12502
rthumb 14.1154 709.759
lclavicle -1.92821e-014 9.47333e-016
lhumerus -586.272 161.109 -481.484
lradius 18.2605
lwrist -51.4957
lhand -2.29158 -724.709
lfingers 7.12502
lthumb 23.3937 23.8889
rfemur -517.154 -198.984 566.491
rtibia 24.3642
rfoot -20.8554 -25.6075
rtoes 30.7072
lfemur 2.26087 725.338 -24.4477
ltibia 58.6825
lfoot 165.392 557.662
ltoes 20.9268
425
root 19.4218 1.29371 0.619569 -1697.8 258.415 142.684
lowerback 26.344 -2.97642 1.64624
upperback 6.8376 -4.30905 -4.0387
thorax -7.40733 -2.36783 -3.99484
lowerneck -9.9117 0.900054 -5.18802
upperneck -0.153444 1.66753 1.55932
head 1.59414 0.828682 1.46236
rclavicle -1.05356e-014 3.13552e-014
rhumerus -409.71 -22.0857 299.826
rradius 12.0515
rwrist 73.1305
rhand -11.432 739.374
rfingers 7.12502
rthumb 14.6043 709.909
lclavicle -1.05356e-014 3.13552e-014
lhumerus -586.296 161.022 -481.637
lradius 18.3226
lwrist -51.1258
lhand -2.3563 -724.444
lfingers 7.12502
lthumb 23.3316 24.162
rfemur -516.701 -199.032 566.663
rtibia 23.5544
rfoot -20.8676 -25.9243
rtoes 30.935
lfemur 2.95554 724.398 -24.6078
ltibia 57.1408
lfoot 165.777 557.79
ltoes 20.9154
426
root 19.44 1.29964 0.622518 -1697.3 258.477 142.185
lowerback 26.2961 -3.02478 1.732
upperback 6.85042 -4.34531 -3.9902
thorax -7.37399 -2.38598 -3.98018
lowerneck -9.95206 0.899258 -5.19515
upperneck -0.107946 1.67071 1.52696
head 1.61616 0.828859 1.45444
rclavicle -2.60408e-014 2.56525e-014
rhumerus -409.46 -21.4463 299.376
rradius 12.1348
rwrist 71.8701
rhand -10.9604 739.405
rfingers 7.12502
rthumb 15.0586 709.973
lclavicle -2.60408e-014 2.56525e-014
lhumerus -586.275 160.976 -481.783
lradius 18.3659
lwrist -50.7673
lhand -2.35554 -724.246
lfingers 7.12502
lthumb 23.3323 24.36
rfemur -516.195 -199.07 566.822
rtibia 22.6559
rfoot -20.9415 -26.2777
rtoes 31.0599
lfemur 3.68009 723.323 -24.8446
ltibia 55.5865
lfoot 166.056 557.982
ltoes 21.2607
427
root 19.4608 1.30601 0.625245 -1696.77 258.551 141.648
lowerback 26.2455 -3.07989 1.80804
upperback 6.86206 -4.39173 -3.92204
thorax -7.33934 -2.40891 -3.93478
lowerneck -9.95738 0.902285 -5.2469
upperneck -0.0992044 1.68101 1.51306
head 1.61944 0.83321 1.4597
rclavicle 7.83212e-014 -1.22001e-013
rhumerus -409.116 -20.5608 298.737
rradius 12.2124
rwrist 70.3435
rhand -10.4528 739.347
rfingers 7.12502
rthumb 15.5476 709.952
lclavicle 7.83212e-014 -1.22001e-013
lhumerus -586.275 160.865 -481.949
lradius 18.389
lwrist -50.3843
lhand -2.35157 -724.169
lfingers 7.12502
lthumb 23.3362 24.437
rfemur -515.626 -199.112 566.998
rtibia 21.6473
rfoot -21.0136 -26.6863
rtoes 31.1686
lfemur 4.41672 722.154 -25.1155
ltibia 54.0351
lfoot 166.25 558.28
ltoes 21.7035
428
root 19.4839 1.31357 0.626445 -1696.09 258.633 140.976
lowerback 26.1795 -3.13822 1.91349
upperback 6.86996 -4.43484 -3.86066
thorax -7.30337 -2.43034 -3.91563
lowerneck -9.99326 0.900634 -5.26312
upperneck -0.0498137 1.68433 1.46753
head 1.64195 0.832971 1.4491
rclavicle -5.32743e-014 5.8598e-014
rhumerus -408.801 -19.5681 297.971
rradius 12.3378
rwrist 68.6369
rhand -9.97079 739.207
rfingers 7.12502
rthumb 16.0118 709.849
lclavicle -5.32743e-014 5.8598e-014
lhumerus -586.282 160.702 -482.174
lradius 18.3992
lwrist -50.071
lhand -2.28862 -724.203
lfingers 7.12502
lthumb 23.3965 24.3951
rfemur -514.976 -199.16 567.211
rtibia 20.4825
rfoot -21.2096 -27.1434
rtoes 31.1484
lfemur 5.13488 720.918 -25.3826
ltibia 52.5211
lfoot 166.385 558.618
ltoes 22.1379
429
root 19.5084 1.32143 0.627229 -1695.46 258.688 140.338
lowerback 26.1328 -3.1984 1.97126
upperback 6.87891 -4.49452 -3.8056
thorax -7.2747 -2.45982 -3.86991
lowerneck -10.0159 0.919726 -5.24518
upperneck 0.00114262 1.71048 1.42337
head 1.66189 0.844132 1.43369
rclavicle 1.94809e-014 7.65321e-015
rhumerus -408.56 -18.8716 297.525
rradius 12.4114
rwrist 67.4848
rhand -9.50732 739.104
rfingers 7.12502
rthumb 16.458 709.782
lclavicle 1.94809e-014 7.65321e-015
lhumerus -586.329 160.43 -482.461
lradius 18.3965
lwrist -49.9176
lhand -2.27236 -724.276
lfingers 7.12502
lthumb 23.4121 24.3195
rfemur -514.185 -199.197 567.399
rtibia 19.1019
rfoot -21.4052 -27.7098
rtoes 31.1487
lfemur 5.88504 719.595 -25.722
ltibia 51.0275
lfoot 166.352 559.086
ltoes 22.591
430
root 19.537 1.32938 0.627131 -1694.63 258.765 139.532
lowerback 26.0356 -3.26763 2.0423
upperback 6.89479 -4.56033 -3.72206
thorax -7.21217 -2.49199 -3.80047
lowerneck -10.0953 0.943941 -5.23754
upperneck 0.0885156 1.74815 1.36621
head 1.70357 0.860043 1.41771
rclavicle 9.70069e-014 -1.10055e-013
rhumerus -408.418 -18.7646 297.647
rradius 12.3927
rwrist 67.2334
rhand -9.18325 739.008
rfingers 7.12502
rthumb 16.77 709.712
lclavicle 9.70069e-014 -1.10055e-013
lhumerus -586.372 160.139 -482.704
lradius 18.4064
lwrist -49.74
lhand -2.17692 -724.431
lfingers 7.12502
lthumb 23.5037 24.1526
rfemur -513.34 -199.201 567.593
rtibia 17.5303
rfoot -21.5237 -28.3554
rtoes 31.4376
lfemur 6.60084 718.241 -26.0209
ltibia 49.5648
lfoot 166.205 559.689
ltoes 22.5472
